<?xml version="1.0" standalone="no"?>
<!DOCTYPE svg PUBLIC "-//W3C//DTD SVG 20010904//EN"
 "http://www.w3.org/TR/2001/REC-SVG-20010904/DTD/svg10.dtd">
<svg version="1.0" xmlns="http://www.w3.org/2000/svg"
 width="800.000000pt" height="800.000000pt" viewBox="0 0 800.000000 800.000000"
 preserveAspectRatio="xMidYMid meet">
<metadata>
Created by potrace 1.11, written by Peter Selinger 2001-2013
</metadata>
<g transform="translate(0.000000,800.000000) scale(0.100000,-0.100000)"
fill="#000000" stroke="none">
<path d="M4565 7711 c5 -9 1 -12 -11 -10 -11 1 -35 -4 -54 -12 -19 -7 -38 -12
-42 -11 -5 1 -8 -2 -8 -8 0 -5 -3 -10 -7 -9 -16 2 -53 -14 -53 -22 0 -5 -9 -9
-20 -9 -11 0 -20 -5 -20 -11 0 -5 -4 -7 -10 -4 -5 3 -10 1 -10 -4 0 -6 -3 -10
-7 -9 -17 3 -43 -15 -36 -25 4 -6 0 -8 -8 -5 -17 7 -61 -26 -51 -37 4 -5 2 -5
-5 -2 -6 4 -17 1 -25 -6 -7 -7 -26 -22 -41 -32 -15 -10 -25 -20 -22 -23 2 -3
-10 -16 -28 -29 -17 -13 -31 -26 -29 -28 1 -3 0 -5 -3 -5 -11 -1 -55 -48 -55
-59 0 -7 -4 -10 -9 -7 -8 6 -18 -8 -19 -28 0 -5 -11 -14 -24 -20 -13 -6 -24
-21 -26 -33 -2 -12 -11 -27 -20 -35 -16 -12 -16 -11 -2 7 12 17 12 18 0 7 -8
-7 -15 -16 -16 -20 -2 -19 -17 -41 -24 -37 -4 3 -11 -2 -14 -11 -4 -10 -2 -13
7 -9 6 4 4 0 -6 -8 -10 -9 -25 -24 -34 -34 -8 -10 -12 -12 -8 -5 7 13 -21 12
-44 -2 -11 -7 -12 -6 -6 5 7 11 6 12 -6 3 -8 -6 -24 -10 -36 -9 -13 1 -23 -3
-23 -9 0 -6 -5 -4 -10 4 -6 10 -10 11 -10 3 0 -7 -10 -13 -23 -13 -13 0 -28
-5 -34 -11 -8 -8 -13 -8 -18 1 -5 8 -11 6 -22 -7 -8 -10 -12 -12 -8 -5 7 14
-11 17 -20 2 -4 -6 -11 -8 -16 -5 -5 4 -9 2 -9 -2 0 -5 -9 -10 -20 -11 -44 -4
-50 -6 -50 -14 0 -5 -4 -6 -10 -3 -5 3 -10 2 -10 -2 0 -5 -14 -10 -32 -11 -17
-1 -38 -10 -45 -20 -8 -9 -12 -11 -8 -4 3 6 1 12 -4 12 -6 0 -11 -4 -11 -9 0
-5 -12 -12 -27 -17 -54 -15 -74 -25 -68 -33 2 -4 -2 -8 -10 -9 -8 -1 -22 -3
-30 -4 -8 -1 -15 -7 -15 -14 0 -8 -6 -11 -14 -8 -7 3 -20 -1 -27 -9 -8 -7 -20
-12 -28 -9 -8 3 -11 0 -7 -7 4 -7 -1 -11 -13 -11 -11 0 -26 -8 -33 -17 -7 -10
-19 -19 -27 -21 -8 -2 -20 -10 -26 -19 -7 -10 -17 -13 -25 -8 -8 5 -11 4 -7
-2 4 -5 -6 -16 -21 -24 -31 -15 -44 -25 -89 -67 -18 -16 -35 -27 -38 -24 -3 3
-5 -2 -5 -11 0 -11 -5 -14 -17 -10 -11 4 -14 3 -9 -5 4 -7 1 -12 -9 -12 -9 0
-14 -3 -12 -7 3 -5 -1 -14 -9 -21 -8 -7 -14 -10 -14 -6 0 4 -36 -30 -80 -76
-44 -45 -77 -87 -73 -93 3 -6 1 -7 -5 -3 -7 4 -12 1 -12 -8 0 -10 -6 -13 -17
-9 -11 4 -14 3 -9 -5 4 -7 2 -12 -5 -12 -7 0 -10 -3 -6 -6 8 -8 -25 -44 -35
-38 -5 3 -8 2 -7 -3 3 -20 -2 -34 -11 -28 -9 6 -14 -7 -11 -27 0 -4 -8 -12
-19 -18 -11 -6 -20 -17 -20 -24 0 -8 -7 -16 -15 -20 -9 -3 -12 -12 -8 -22 4
-12 3 -15 -5 -10 -8 4 -16 -2 -21 -17 -6 -14 -15 -28 -21 -32 -5 -3 -8 -11 -5
-16 4 -5 1 -9 -5 -9 -7 0 -10 -7 -6 -15 3 -8 -4 -21 -17 -30 -12 -8 -17 -15
-12 -15 5 0 1 -6 -9 -13 -9 -7 -17 -17 -16 -22 4 -19 0 -34 -14 -48 -8 -8 -17
-27 -20 -43 -2 -16 -5 -31 -6 -34 -1 -3 -2 -8 -1 -12 0 -5 -3 -8 -7 -8 -7 0
-10 -13 -14 -72 -1 -15 -7 -24 -12 -21 -5 4 -7 -1 -3 -9 3 -9 1 -20 -5 -26 -6
-6 -6 -12 1 -16 5 -4 7 -14 4 -22 -3 -9 0 -20 8 -25 11 -7 9 -9 -6 -9 -12 0
-16 -3 -9 -8 12 -8 12 -51 0 -71 -6 -9 -5 -12 2 -7 6 3 9 -1 8 -11 -2 -10 -8
-18 -14 -18 -6 0 -21 -8 -32 -17 -29 -26 -46 -22 -61 11 -7 16 -18 27 -23 24
-5 -4 -7 1 -3 10 4 11 1 17 -9 17 -8 0 -12 5 -9 10 3 6 1 10 -5 10 -6 0 -8 5
-5 10 3 6 1 10 -5 10 -6 0 -8 5 -5 10 3 6 -1 10 -10 10 -9 0 -14 4 -11 9 7 11
-18 61 -36 72 -10 7 -10 9 1 9 9 0 6 7 -9 20 -13 11 -17 20 -10 20 7 0 2 9
-11 21 -13 11 -18 18 -11 14 6 -3 12 -1 12 4 0 6 -7 11 -16 11 -8 0 -12 5 -9
10 3 6 -1 10 -10 10 -9 0 -14 4 -11 9 10 15 -68 -13 -86 -31 -10 -10 -23 -18
-29 -18 -5 0 -8 -4 -5 -9 3 -5 -1 -12 -10 -15 -8 -3 -12 -10 -9 -16 3 -5 3
-10 -2 -10 -4 0 -14 -15 -21 -32 -7 -18 -18 -41 -23 -51 -5 -10 -7 -22 -4 -27
4 -6 2 -10 -4 -10 -5 0 -9 -14 -9 -30 1 -17 -2 -33 -5 -37 -4 -3 -2 -12 5 -20
6 -8 7 -13 2 -12 -21 4 -28 -2 -14 -12 11 -8 12 -12 2 -16 -6 -2 -9 -9 -6 -15
10 -15 10 -108 1 -108 -5 0 -5 -6 0 -12 4 -7 6 -26 4 -42 -2 -21 1 -26 11 -21
10 6 10 5 2 -4 -12 -13 21 -125 43 -149 15 -16 17 -36 4 -27 -5 3 -12 -4 -16
-14 -3 -11 -15 -23 -26 -26 -10 -4 -17 -11 -14 -16 4 -5 -1 -9 -9 -9 -9 0 -16
-4 -16 -10 0 -5 -7 -10 -15 -10 -8 0 -14 -5 -12 -12 1 -7 -4 -13 -10 -14 -7
-1 -16 -2 -19 -3 -4 0 0 -9 7 -18 8 -9 10 -14 4 -11 -5 3 -19 -4 -30 -15 -11
-11 -14 -17 -7 -13 6 4 12 3 12 -2 0 -6 -7 -13 -16 -16 -8 -3 -12 -10 -9 -16
3 -5 2 -10 -4 -10 -6 0 -8 -7 -5 -15 4 -8 1 -15 -6 -15 -7 0 -10 -7 -6 -15 3
-8 2 -15 -3 -15 -8 0 -10 -9 -13 -60 -1 -16 -5 -30 -10 -30 -5 0 -6 -5 -2 -12
11 -18 11 -57 0 -51 -5 4 -7 -1 -3 -10 4 -10 2 -17 -5 -17 -7 0 -7 -4 -1 -12
6 -7 9 -23 8 -35 -1 -13 2 -23 6 -23 4 0 5 -9 2 -20 -3 -11 -2 -28 2 -37 7
-17 15 -53 17 -80 1 -7 5 -10 10 -6 6 3 8 -4 6 -14 -2 -11 3 -27 11 -36 7 -10
10 -17 5 -17 -4 0 1 -7 12 -16 10 -8 12 -13 4 -9 -8 4 -4 -3 9 -14 13 -12 19
-21 15 -21 -5 0 4 -12 19 -26 15 -14 25 -29 22 -35 -4 -5 1 -9 9 -9 9 0 16 -5
16 -11 0 -5 4 -7 10 -4 5 3 10 -1 10 -10 0 -9 5 -13 10 -10 6 3 10 2 10 -3 0
-20 36 -6 58 23 13 17 27 30 32 29 26 -3 29 -5 24 -18 -3 -7 1 -20 8 -27 7 -8
14 -21 16 -29 2 -8 7 -17 10 -20 4 -3 9 -16 11 -30 1 -13 12 -32 23 -41 10
-10 19 -20 19 -23 -3 -20 0 -26 9 -21 6 3 10 -1 10 -9 0 -9 6 -16 13 -16 8 0
7 -4 -3 -10 -13 -8 -13 -10 2 -10 9 0 20 -9 23 -20 3 -11 11 -20 17 -20 6 0 8
-3 5 -7 -4 -3 5 -16 18 -29 14 -13 26 -27 28 -31 1 -5 5 -7 9 -6 5 2 8 -2 8
-7 0 -14 147 -160 154 -153 3 3 8 -2 12 -11 3 -9 12 -16 20 -16 8 0 14 -7 14
-16 0 -8 4 -13 8 -10 5 3 15 -4 22 -15 8 -10 19 -19 25 -19 6 0 16 -9 23 -21
7 -11 19 -18 26 -16 7 3 18 -4 25 -15 7 -11 18 -17 25 -15 7 3 19 -3 27 -14 7
-10 18 -19 23 -19 5 0 15 -8 23 -17 8 -10 12 -12 8 -6 -4 9 -1 11 9 7 19 -7
21 -34 4 -34 -10 0 -10 -2 -1 -8 12 -7 3 -35 -11 -33 -17 3 -26 0 -24 -6 2
-14 -14 -43 -22 -38 -8 5 -23 -32 -21 -48 1 -5 -2 -6 -6 -4 -10 6 -34 -19 -26
-27 4 -3 1 -6 -6 -6 -8 0 -11 -6 -7 -16 3 -8 2 -13 -3 -10 -8 5 -17 -7 -19
-27 -1 -4 -8 -15 -17 -23 -8 -9 -15 -24 -15 -35 0 -11 -4 -17 -10 -14 -5 3
-10 -2 -10 -12 -1 -17 -2 -17 -15 1 -8 11 -15 16 -15 12 0 -5 -6 -3 -13 3 -8
6 -17 8 -20 4 -4 -3 -7 -1 -7 6 0 7 -4 9 -10 6 -5 -3 -19 -8 -31 -10 -12 -2
-33 -17 -47 -32 -14 -15 -29 -27 -33 -26 -4 2 -16 -15 -26 -37 -10 -22 -26
-42 -35 -45 -10 -4 -15 -14 -13 -25 2 -13 -2 -20 -11 -20 -8 0 -13 -4 -10 -8
3 -5 -1 -9 -8 -9 -8 0 -13 7 -11 16 1 9 -5 25 -14 35 -9 11 -10 16 -3 12 6 -4
12 -2 12 3 0 6 -4 11 -10 11 -5 0 -14 18 -20 40 -6 22 -17 40 -24 40 -8 0 -17
7 -20 16 -3 8 -10 12 -16 9 -5 -3 -10 1 -10 10 0 9 -5 13 -10 10 -6 -3 -10 -1
-10 4 0 7 -7 7 -20 -1 -11 -7 -20 -21 -20 -31 0 -10 -5 -28 -12 -40 -14 -26
-19 -44 -22 -74 0 -13 -4 -23 -8 -23 -5 0 -7 -3 -6 -7 1 -5 -3 -18 -10 -29 -6
-12 -9 -24 -5 -27 3 -4 0 -14 -8 -24 -12 -15 -12 -16 1 -9 13 7 13 6 0 -6 -8
-7 -16 -24 -17 -38 -4 -49 -7 -60 -16 -60 -5 0 -6 -7 -3 -16 4 -9 1 -24 -6
-32 -10 -12 -10 -14 -1 -8 9 5 11 2 7 -8 -3 -9 -9 -16 -13 -16 -4 0 -7 -16 -6
-35 1 -19 -2 -35 -8 -35 -5 0 -3 -8 4 -17 12 -14 12 -16 0 -8 -11 6 -13 3 -9
-13 4 -12 2 -24 -2 -27 -5 -3 -7 -14 -5 -25 2 -11 -1 -20 -6 -20 -6 0 -6 -7 1
-19 7 -14 7 -22 -1 -27 -6 -3 -9 -21 -7 -39 2 -20 0 -31 -6 -28 -5 4 -7 -3 -4
-14 3 -11 1 -28 -4 -37 -7 -12 -5 -16 9 -17 16 0 16 -1 -2 -9 -11 -5 -15 -9
-9 -9 6 -1 11 -8 11 -16 0 -8 -4 -12 -9 -9 -5 3 -6 -8 -3 -25 3 -20 1 -31 -6
-31 -8 0 -8 -4 1 -15 10 -12 10 -15 -1 -15 -9 -1 -8 -5 5 -15 11 -9 14 -15 7
-15 -9 0 -11 -11 -8 -35 3 -20 0 -35 -5 -35 -6 0 -5 -6 2 -15 9 -11 9 -15 1
-15 -7 0 -9 -5 -4 -12 4 -7 7 -32 5 -56 -1 -27 2 -41 8 -37 13 8 8 -18 -5 -27
-6 -5 -5 -8 3 -8 9 0 10 -5 3 -18 -7 -13 -6 -23 1 -30 7 -7 8 -12 4 -12 -5 0
-3 -7 4 -15 9 -11 9 -15 1 -15 -8 0 -9 -6 -3 -17 5 -10 7 -24 4 -32 -3 -9 0
-11 8 -6 9 6 9 3 1 -14 -9 -16 -9 -21 0 -21 7 0 10 -3 6 -6 -3 -3 -2 -17 3
-30 7 -17 6 -24 -2 -24 -6 0 -3 -10 8 -22 10 -12 13 -18 5 -13 -9 5 -7 -1 4
-19 12 -19 14 -26 5 -26 -10 0 -9 -4 2 -17 8 -10 13 -28 12 -41 0 -12 2 -22 6
-22 4 0 7 -8 6 -17 0 -11 5 -17 14 -15 12 3 12 1 3 -9 -12 -12 -6 -42 7 -34 4
2 6 -7 4 -20 -1 -14 2 -25 7 -25 6 0 7 -4 4 -10 -3 -5 -1 -10 4 -10 6 0 10 -3
10 -7 -4 -25 2 -53 11 -48 6 4 10 -5 10 -19 0 -14 5 -26 11 -26 5 0 7 -4 4
-10 -3 -5 -2 -10 4 -10 5 0 8 -9 6 -19 -2 -11 3 -22 11 -25 9 -3 12 -10 9 -16
-3 -5 -1 -10 4 -10 6 0 11 -7 11 -15 0 -8 5 -15 10 -15 6 0 10 -9 10 -20 0
-11 4 -20 9 -20 5 0 13 -9 16 -20 3 -11 13 -26 20 -34 8 -8 16 -20 17 -27 5
-20 22 -38 32 -31 5 3 6 1 3 -5 -3 -5 5 -22 19 -38 13 -15 24 -32 24 -37 0 -5
5 -6 10 -3 6 4 10 3 9 -2 -4 -21 3 -32 21 -38 11 -4 18 -10 15 -14 -5 -10 40
-51 57 -51 6 0 9 -3 5 -6 -8 -8 25 -44 35 -38 4 3 8 -4 8 -16 0 -12 5 -18 10
-15 6 3 10 1 10 -5 0 -6 4 -9 9 -5 5 3 12 -4 16 -15 3 -11 13 -20 21 -20 8 0
19 -10 24 -22 5 -13 9 -17 9 -10 1 6 6 12 12 12 5 0 8 -3 6 -7 -4 -8 26 -41
40 -45 5 -2 7 -7 5 -13 -2 -5 -1 -7 3 -3 4 4 16 -2 28 -13 11 -10 29 -19 39
-19 11 0 16 -4 13 -10 -5 -9 10 -15 18 -7 1 1 13 -8 27 -21 13 -12 30 -20 37
-18 7 3 12 0 10 -7 -1 -6 8 -13 21 -15 12 -2 22 -8 22 -13 0 -6 5 -7 10 -4 6
3 10 1 10 -5 0 -6 5 -8 10 -5 6 3 10 2 10 -4 0 -10 38 -27 53 -23 4 1 7 -3 7
-9 0 -5 5 -7 10 -4 6 3 10 1 10 -5 0 -6 4 -9 9 -6 4 3 17 -1 27 -9 10 -8 27
-15 37 -15 9 0 17 -6 17 -12 0 -10 2 -10 9 0 7 11 9 11 14 -2 4 -9 10 -15 14
-15 8 2 35 -7 68 -22 11 -6 30 -11 43 -12 12 0 22 -5 22 -10 0 -5 9 -7 20 -4
11 3 20 2 20 -3 0 -4 7 -11 16 -14 10 -4 13 -2 8 7 -4 6 2 3 14 -7 17 -14 22
-16 22 -5 1 10 4 9 11 -4 6 -9 15 -15 20 -11 5 3 17 0 26 -8 12 -9 15 -9 9 0
-4 6 -2 12 3 12 6 0 11 -6 11 -12 0 -9 4 -8 10 2 8 13 10 13 10 -1 0 -16 5
-18 65 -21 19 -1 35 -6 35 -11 0 -5 9 -7 20 -4 11 3 20 1 20 -3 0 -5 8 -7 18
-6 9 2 20 -2 24 -8 5 -7 8 -7 8 3 0 9 4 10 13 4 6 -6 19 -11 27 -12 46 -4 77
-9 93 -16 10 -4 20 -5 23 -2 3 2 21 1 40 -3 22 -5 34 -4 34 3 0 6 7 2 16 -9 8
-10 13 -13 9 -6 -3 6 -1 12 4 12 6 0 11 -5 11 -10 0 -12 22 -9 32 5 5 6 8 4 8
-5 0 -13 1 -13 10 0 7 12 10 12 10 1 0 -7 6 -11 14 -8 8 3 17 3 20 -1 4 -3 32
-5 63 -4 30 1 63 -3 73 -8 11 -6 21 -5 28 2 8 8 12 8 12 2 0 -12 29 -12 49 0
8 5 16 4 20 -3 6 -8 15 -9 34 -2 18 7 27 7 30 -2 3 -9 8 -9 20 2 14 11 17 11
17 0 0 -12 2 -12 9 0 7 11 9 11 13 0 4 -12 8 -12 20 -1 13 10 17 10 20 0 4
-10 8 -11 20 0 9 7 37 11 72 9 32 -1 56 2 56 8 0 5 5 3 10 -5 7 -12 10 -12 10
-1 0 7 6 11 15 7 8 -3 15 -1 15 5 0 6 6 7 13 2 20 -12 37 -12 37 0 0 7 5 5 10
-3 8 -12 10 -12 10 -1 0 8 3 11 7 8 3 -4 12 -2 19 4 8 7 14 7 19 -1 4 -7 12
-7 26 0 10 6 19 7 19 3 0 -4 5 -1 10 7 6 10 10 11 10 3 0 -7 5 -13 11 -13 5 0
7 6 3 13 -5 8 -2 8 9 -2 13 -10 17 -10 17 -1 0 8 9 11 26 7 17 -3 28 0 31 10
4 11 8 12 13 3 5 -8 13 -9 21 -4 8 5 25 9 39 10 15 0 24 6 22 14 -3 11 0 11
12 1 8 -7 17 -8 20 -2 3 5 17 8 31 6 14 -1 25 2 25 8 0 6 3 7 7 4 3 -4 12 -2
20 4 10 9 13 8 13 0 0 -7 5 -9 10 -6 6 4 8 10 6 14 -3 4 8 7 25 6 18 -1 33 4
39 14 8 14 9 14 10 1 0 -13 1 -13 10 0 5 8 10 11 10 6 0 -5 7 -3 15 4 12 10
15 10 15 -1 0 -9 3 -10 8 -3 8 12 37 25 67 31 11 2 22 8 23 13 2 6 12 10 22
10 10 0 22 5 25 10 4 6 11 8 16 5 5 -4 9 -1 9 5 0 6 5 8 10 5 6 -3 10 -1 10 5
0 6 5 8 10 5 6 -3 10 -1 10 5 0 6 5 8 10 5 6 -3 24 4 42 16 18 13 28 17 24 8
-4 -7 2 -3 14 11 12 14 19 19 15 12 -6 -11 -3 -11 14 0 12 7 21 16 21 21 0 4
5 5 10 2 6 -3 10 -1 10 4 0 6 7 11 15 11 8 0 15 5 15 10 0 6 7 10 15 10 9 0
18 7 21 15 4 8 10 13 14 10 4 -2 20 8 36 22 16 15 31 28 34 28 7 0 34 23 77
65 20 19 32 28 28 20 -5 -8 12 5 36 30 25 25 44 48 43 51 -2 3 15 21 36 39 21
18 37 37 34 42 -3 4 0 8 5 8 6 0 11 8 11 17 0 9 3 14 6 10 10 -9 35 20 37 42
0 11 4 19 7 19 16 -1 30 3 28 10 -2 13 15 47 34 65 10 10 16 22 13 27 -3 4 2
10 10 14 8 3 15 15 15 27 0 12 3 19 7 16 9 -10 35 31 28 43 -3 6 -2 10 3 10 5
0 13 10 17 23 4 12 9 24 10 27 1 3 6 15 10 28 4 12 11 22 16 22 5 0 9 5 9 11
0 5 -6 7 -12 4 -7 -4 -4 1 6 9 11 9 16 16 12 16 -5 0 -3 7 4 15 6 8 9 19 5 25
-3 5 -1 10 5 10 6 0 8 5 5 10 -3 6 -1 10 4 10 6 0 11 11 11 24 0 14 6 31 13
38 8 7 12 19 9 26 -2 6 2 12 10 12 10 0 9 3 -2 10 -11 7 -12 12 -3 17 6 5 13
17 15 28 1 11 8 23 13 27 6 5 5 8 -4 8 -11 0 -11 3 -1 15 6 8 9 19 5 25 -3 5
-2 10 4 10 6 0 8 7 5 15 -4 8 -2 15 4 15 5 0 9 16 7 35 -1 19 2 32 7 29 4 -3
8 4 8 16 0 14 -4 19 -12 15 -7 -4 -6 -1 2 7 9 7 15 25 15 41 -1 15 3 27 7 27
4 0 8 5 8 11 0 5 -4 8 -8 5 -7 -4 -8 33 -2 42 2 1 3 10 4 20 1 9 5 22 9 29 4
6 3 15 -3 18 -8 5 -7 11 1 21 9 11 9 17 -1 29 -9 11 -9 15 -1 15 7 0 9 5 6 10
-3 6 -1 10 6 10 8 0 8 4 1 13 -7 8 -7 18 -2 27 6 9 5 17 -3 22 -9 6 -9 8 0 8
9 0 10 7 3 25 -7 18 -6 25 3 25 8 0 7 4 -3 10 -13 9 -13 10 0 10 13 0 13 1 0
10 -13 9 -13 10 0 10 13 0 13 1 0 10 -12 7 -12 10 -1 10 8 0 11 6 6 18 -4 9
-8 24 -10 32 -2 8 -4 17 -5 20 -1 3 -1 10 0 15 6 27 5 51 -5 57 -6 5 -5 8 3 8
10 0 10 5 2 20 -6 11 -8 25 -5 30 3 5 2 11 -2 13 -5 3 -8 24 -7 46 0 23 -2 41
-5 41 -3 0 -7 19 -8 42 -2 23 -8 45 -14 49 -8 4 -7 8 2 12 9 4 10 8 4 14 -5 4
-11 13 -12 18 -1 6 -5 19 -9 29 -6 15 -4 17 7 11 11 -7 12 -6 2 7 -7 8 -10 18
-6 21 3 4 2 7 -3 7 -5 0 -10 11 -10 25 -1 14 -5 33 -9 43 -8 18 -11 27 -13 50
-1 8 -7 10 -14 6 -9 -5 -9 -2 1 9 7 9 9 17 4 17 -5 0 -10 7 -11 15 -1 8 -3 22
-4 30 -1 8 -4 15 -8 15 -4 0 -7 7 -8 15 -1 8 -3 22 -4 30 -1 8 -6 15 -11 15
-5 0 -7 7 -3 15 3 8 1 15 -5 15 -6 0 -7 5 -4 10 3 6 2 10 -2 10 -5 0 -9 10
-10 22 -1 11 -6 24 -10 27 -4 3 -9 15 -11 26 -5 34 -11 46 -21 41 -5 -3 -7 3
-4 14 3 11 1 20 -4 20 -5 0 -9 10 -10 22 -3 39 -41 46 -69 12 -8 -10 -12 -12
-8 -4 7 13 5 13 -9 1 -9 -7 -14 -18 -10 -24 3 -5 2 -7 -4 -4 -10 6 -60 -52
-55 -65 1 -5 -5 -8 -14 -8 -8 0 -12 -5 -9 -10 3 -6 -1 -13 -9 -16 -9 -3 -13
-10 -10 -15 3 -5 -4 -9 -15 -9 -11 0 -23 5 -26 10 -4 6 -11 8 -16 5 -5 -4 -6
2 -2 12 3 10 3 15 -1 11 -5 -4 -19 5 -32 19 -15 16 -24 21 -24 12 0 -9 -3 -10
-8 -3 -13 21 -48 34 -59 23 -8 -8 -13 -7 -17 0 -4 6 -12 11 -17 11 -6 0 -7 -4
-4 -10 3 -5 -3 -10 -14 -10 -31 0 -51 -11 -52 -29 0 -9 -3 -11 -5 -5 -4 10
-81 -54 -79 -66 1 -3 -10 -16 -23 -30 -14 -14 -22 -18 -18 -10 4 8 -2 4 -13
-10 -14 -17 -21 -20 -21 -10 0 13 -1 13 -10 0 -8 -12 -10 -10 -10 8 0 13 -4
20 -10 17 -5 -3 -10 3 -10 14 0 12 -4 21 -10 21 -5 0 -10 6 -10 14 0 8 -10 18
-21 21 -17 6 -19 9 -8 16 11 7 10 9 -3 9 -10 0 -18 5 -18 10 0 6 -7 10 -15 10
-8 0 -15 5 -15 11 0 6 -7 8 -16 5 -8 -3 -13 -2 -10 3 3 5 -1 11 -9 15 -8 3
-17 1 -20 -5 -4 -5 -10 -7 -15 -4 -5 3 -13 -3 -19 -12 -6 -10 -11 -15 -11 -11
0 4 -13 -5 -29 -20 -15 -15 -26 -31 -23 -35 2 -5 -6 -7 -19 -6 -13 2 -30 0
-36 -4 -8 -5 -13 -3 -13 4 0 7 -7 4 -16 -7 -8 -10 -13 -13 -9 -6 5 9 0 11 -18
8 -20 -3 -24 0 -23 17 1 12 -2 25 -7 28 -5 4 -9 18 -9 33 0 14 -5 26 -10 26
-5 0 -6 4 -3 10 3 5 2 10 -4 10 -6 0 -8 7 -5 15 4 8 1 15 -5 15 -6 0 -8 7 -5
15 4 8 1 15 -6 15 -6 0 -8 5 -5 10 3 5 1 10 -5 10 -6 0 -8 5 -5 10 3 5 1 10
-5 10 -6 0 -8 4 -5 10 3 5 1 10 -5 10 -6 0 -9 4 -6 9 3 4 -3 19 -14 31 -11 12
-17 27 -14 31 3 5 -3 9 -12 9 -10 0 -14 3 -11 6 4 4 -2 14 -12 23 -25 22 -7
48 35 53 16 2 35 10 42 18 8 8 11 9 7 3 -3 -7 -2 -13 3 -13 14 0 52 -36 52
-49 0 -7 5 -9 10 -6 6 3 10 1 10 -4 0 -6 7 -11 16 -11 8 0 12 -4 9 -10 -3 -5
1 -10 9 -10 9 0 16 -4 16 -10 0 -5 9 -10 20 -10 11 0 20 -4 20 -10 0 -5 7 -7
15 -4 8 4 15 1 15 -5 0 -6 5 -11 11 -11 5 0 7 6 3 13 -4 6 2 4 13 -6 11 -9 23
-14 26 -10 4 3 7 1 7 -6 0 -8 7 -10 20 -6 12 4 20 2 20 -5 0 -7 8 -10 20 -7
11 3 23 1 26 -4 3 -5 16 -7 30 -5 13 3 24 1 24 -3 0 -4 7 -8 15 -8 8 0 15 5
15 11 0 7 3 7 8 1 4 -5 18 -11 32 -13 86 -9 130 -9 125 -1 -8 12 28 -2 37 -15
5 -7 8 -7 8 2 0 15 58 14 79 -2 11 -9 13 -8 7 2 -6 11 -1 12 23 9 17 -3 33 -1
37 4 3 5 10 6 16 3 6 -4 14 0 19 7 6 10 9 11 9 2 0 -7 7 -13 16 -13 8 0 13 4
9 9 -3 6 4 8 15 6 11 -2 20 0 20 5 0 5 11 7 24 4 17 -3 29 2 39 17 10 14 16
16 19 8 3 -9 10 -7 23 8 15 18 22 20 34 10 8 -7 12 -7 9 -2 -3 6 0 16 8 23 8
7 14 10 14 7 0 -3 6 0 14 7 8 7 12 16 9 21 -2 4 2 7 11 7 8 0 13 7 11 18 -2 9
-4 25 -4 35 -1 9 -8 17 -16 17 -8 0 -15 3 -15 8 0 8 -71 32 -95 32 -8 0 -15 5
-15 10 0 6 -9 10 -20 10 -11 0 -20 5 -20 11 0 6 -9 9 -20 6 -10 -3 -18 -2 -17
2 1 3 0 6 -3 6 -3 0 -21 16 -40 35 -20 19 -42 36 -50 38 -22 5 -41 23 -34 33
3 5 -2 9 -10 9 -9 0 -21 9 -28 19 -6 11 -18 17 -26 13 -10 -3 -13 -1 -8 6 4 8
-2 16 -16 21 -13 6 -19 10 -15 10 5 1 2 7 -5 14 -14 14 -49 31 -59 29 -3 0 -6
6 -6 14 0 8 6 13 14 10 8 -3 15 4 19 20 5 21 9 23 22 12 13 -11 14 -11 8 0 -4
7 9 3 30 -8 20 -12 43 -19 50 -16 7 3 16 0 20 -6 5 -7 2 -8 -6 -3 -9 5 -11 4
-6 -4 6 -9 11 -9 22 0 9 7 14 8 14 1 0 -12 40 -9 61 3 11 7 12 6 2 -6 -11 -13
-9 -15 7 -14 11 1 23 4 26 8 4 3 14 3 23 -2 9 -4 31 -7 49 -5 18 1 30 -1 28
-5 -3 -4 1 -8 9 -8 8 0 12 4 9 9 -6 9 -3 10 83 12 33 0 59 4 56 9 -2 4 6 5 19
3 13 -2 31 1 41 6 12 6 17 5 17 -4 0 -8 4 -7 10 4 6 10 18 14 31 11 12 -4 25
0 30 8 7 12 9 12 9 -1 1 -12 3 -11 11 3 8 14 14 16 25 6 11 -9 14 -9 14 0 0 7
5 9 10 6 6 -3 10 -2 10 4 0 6 6 8 14 5 8 -3 17 0 21 5 3 6 11 9 16 6 5 -4 9
-1 9 5 0 6 4 9 8 6 12 -7 83 19 93 35 5 8 9 10 9 5 0 -5 8 -2 17 5 14 12 16
12 9 -1 -4 -8 0 -6 9 5 9 11 23 19 32 17 8 -2 13 0 10 5 -6 9 13 27 33 31 8 2
20 10 26 18 6 7 17 14 24 14 7 0 10 3 7 7 -4 3 2 13 13 20 11 8 18 18 15 23
-3 4 2 11 11 14 8 3 13 10 10 15 -3 5 1 12 10 15 9 3 14 12 11 19 -2 6 0 20 5
29 6 13 1 25 -19 46 -16 15 -35 27 -43 27 -8 -1 -28 5 -45 13 -29 14 -29 14
-15 -3 14 -17 14 -17 -7 -7 -27 15 -36 15 -27 1 4 -8 0 -8 -15 0 -11 7 -21 9
-21 5 0 -3 -7 -1 -15 6 -12 10 -15 10 -15 -1 0 -12 -2 -12 -9 0 -5 8 -15 12
-23 9 -8 -3 -22 0 -32 8 -11 7 -23 11 -27 8 -5 -3 -9 0 -9 6 0 6 -4 8 -10 5
-5 -3 -10 -1 -10 4 0 6 -11 11 -25 11 -14 0 -25 4 -25 10 0 5 -7 7 -15 4 -8
-4 -15 -1 -15 6 0 6 -4 8 -10 5 -5 -3 -10 -1 -10 4 0 6 -7 11 -16 11 -8 0 -22
7 -31 15 -8 8 -19 13 -24 10 -5 -4 -9 -2 -9 2 0 5 -20 19 -45 31 -25 12 -45
26 -45 30 0 5 -7 9 -15 10 -8 1 -22 3 -30 4 -8 1 -12 5 -9 10 5 7 -10 12 -28
9 -11 -1 -10 7 3 31 9 16 8 19 -3 12 -10 -6 -11 -5 -1 8 7 8 10 18 6 21 -3 4
1 7 11 7 9 0 15 4 12 8 -2 4 8 7 22 6 15 -1 33 4 41 10 11 8 13 8 7 -1 -4 -7
-3 -13 3 -13 5 0 12 4 16 9 3 6 14 8 25 6 11 -2 20 1 20 6 0 6 4 8 9 5 5 -3
11 0 14 8 4 9 14 12 27 9 13 -4 26 0 31 8 7 11 9 11 9 1 0 -10 3 -10 14 0 8 7
11 18 8 23 -2 6 1 5 8 -2 10 -9 16 -8 27 3 8 8 19 12 24 9 5 -4 9 -1 9 5 0 6
5 8 10 5 6 -3 10 -1 10 4 0 6 7 11 15 11 8 0 15 5 15 12 0 6 3 8 7 5 3 -4 12
1 20 11 10 11 12 12 8 2 -4 -10 -2 -9 8 2 8 10 17 15 20 11 4 -3 7 -1 7 6 0 7
4 10 9 7 5 -4 11 -3 13 2 1 4 24 21 50 38 26 17 45 34 41 38 -3 3 3 6 15 6 11
0 25 6 29 14 4 7 18 18 31 25 12 7 20 17 16 23 -4 7 -3 8 5 4 6 -4 14 0 17 8
3 9 10 13 16 10 5 -3 12 4 15 16 4 15 8 18 13 10 5 -9 10 -6 15 9 4 14 12 20
21 17 7 -3 13 -1 11 3 -2 10 42 51 55 51 4 0 7 3 6 8 -3 7 49 62 58 62 13 0
94 92 94 106 0 8 5 12 10 9 6 -3 10 -1 10 4 0 6 7 11 16 11 8 0 13 4 10 8 -3
4 10 24 29 44 18 20 30 39 27 42 -3 3 2 6 12 6 9 0 14 5 11 11 -4 5 5 21 18
33 14 13 23 27 20 30 -3 3 2 8 11 12 14 5 14 9 4 22 -10 12 -10 14 0 8 6 -4
12 -3 12 3 0 6 10 20 23 32 12 12 15 18 7 14 -12 -6 -12 -5 -3 5 6 7 9 19 6
26 -3 8 0 14 7 14 6 0 8 5 5 10 -3 6 -1 10 4 10 6 0 10 3 9 8 -1 8 9 39 23 64
5 10 9 29 9 43 0 15 4 23 10 20 6 -3 7 1 4 9 -4 10 -1 16 7 16 11 0 11 3 -1
10 -8 5 -10 10 -4 10 7 0 10 13 8 31 -2 16 0 28 4 25 4 -2 8 4 8 15 0 10 -5
19 -11 19 -5 0 -3 5 5 10 11 7 11 10 2 10 -7 0 -11 4 -8 8 2 4 -4 27 -15 51
-13 30 -23 41 -34 37 -9 -3 -15 0 -15 11 0 13 -3 13 -15 3 -12 -10 -15 -10
-15 1 0 9 -3 10 -8 4 -4 -5 -11 -10 -17 -10 -34 -1 -95 -18 -95 -26 0 -6 -4
-7 -10 -4 -5 3 -10 2 -10 -2 0 -5 -12 -10 -27 -11 -15 -1 -38 -9 -51 -18 -17
-11 -22 -12 -16 -3 6 11 5 12 -8 2 -8 -7 -18 -10 -21 -6 -4 3 -7 1 -7 -6 0 -8
-6 -11 -16 -7 -9 4 -22 2 -28 -3 -6 -5 -25 -12 -41 -15 -17 -2 -30 -5 -30 -6
0 -1 -16 -4 -35 -7 -19 -2 -41 -10 -49 -16 -12 -10 -13 -9 -7 1 7 11 4 12 -11
3 -11 -5 -37 -11 -57 -13 -20 -1 -36 -7 -36 -12 0 -6 -5 -5 -12 2 -8 8 -17 8
-30 1 -11 -6 -26 -8 -34 -5 -8 3 -14 0 -14 -7 0 -8 -4 -6 -10 3 -5 8 -10 10
-10 4 0 -10 -67 -10 -112 0 -10 2 -18 -1 -18 -7 0 -7 -5 -5 -10 3 -5 8 -10 11
-10 5 0 -14 -73 -10 -78 4 -3 9 -8 9 -17 1 -10 -8 -15 -8 -20 0 -5 8 -11 8
-21 -1 -11 -9 -14 -8 -14 2 0 11 -2 11 -10 -1 -5 -8 -10 -10 -10 -4 0 7 -28
12 -75 13 -41 1 -81 2 -87 2 -7 0 -43 -1 -79 -2 -36 -1 -71 1 -79 6 -9 5 -11
4 -6 -3 4 -7 2 -12 -3 -12 -6 0 -11 6 -11 13 0 8 -4 7 -10 -3 -5 -8 -10 -10
-10 -5 0 6 -5 3 -10 -5 -8 -13 -10 -13 -10 -1 0 12 -3 12 -12 3 -7 -7 -20 -12
-30 -12 -21 0 -58 29 -58 47 0 6 -9 15 -20 18 -11 4 -17 11 -14 17 5 8 1 9
-12 4 -10 -4 -15 -4 -12 0 8 8 -16 34 -31 34 -6 0 -11 8 -11 17 0 9 -3 14 -6
10 -3 -3 -17 5 -31 19 -13 13 -29 21 -35 18 -7 -4 -8 -2 -4 4 7 11 -6 17 -28
13 -5 -1 -6 5 -3 13 4 9 0 13 -11 12 -20 -3 -42 15 -34 29 3 6 -3 3 -14 -5
-10 -8 -16 -11 -12 -6 10 11 -14 35 -29 29 -7 -3 -13 0 -13 7 0 7 -7 10 -15 6
-8 -3 -15 -1 -15 4 0 6 -4 10 -10 10 -17 0 -47 36 -44 53 1 9 -3 20 -8 24 -7
4 -8 1 -3 -7 5 -8 4 -11 -2 -7 -6 4 -9 18 -8 32 2 14 -1 25 -6 25 -5 0 -8 3
-8 8 3 19 -2 33 -11 27 -6 -4 -7 1 -3 11 4 12 3 15 -5 10 -8 -4 -10 -2 -6 8 3
8 -2 25 -10 38 -9 14 -13 28 -9 31 3 4 -1 7 -10 7 -9 0 -16 3 -15 8 3 14 -20
57 -45 85 -15 15 -22 27 -17 27 6 0 0 10 -12 22 -13 13 -26 22 -30 21 -5 -2
-8 5 -8 15 0 16 -52 82 -64 82 -10 0 -54 49 -48 54 3 3 -2 6 -12 6 -9 0 -14 5
-11 10 3 6 -1 10 -9 10 -9 0 -16 3 -16 8 0 4 -18 18 -39 32 -22 13 -38 28 -35
32 3 4 -4 8 -15 8 -12 0 -21 5 -21 10 0 6 -7 10 -15 10 -8 0 -15 5 -15 10 0 6
-6 9 -12 8 -7 -2 -12 3 -10 10 1 6 -2 12 -7 12 -12 0 -11 159 1 166 6 4 5 10
-3 15 -12 7 -12 9 0 9 10 0 11 3 2 14 -7 8 -8 17 -3 20 5 3 8 17 7 31 -2 14 0
25 3 25 4 0 7 17 7 38 0 20 2 42 4 47 5 9 9 36 12 75 1 8 6 21 12 28 6 8 5 12
-4 12 -11 0 -11 2 -1 8 6 5 13 27 15 51 1 23 7 45 13 49 16 11 11 112 -6 122
-13 9 -13 10 0 10 8 1 3 8 -13 16 -15 8 -33 12 -39 8 -6 -4 -8 -3 -5 3 4 6 -2
13 -13 16 -11 3 -18 1 -15 -3 6 -10 -48 -5 -66 6 -8 5 -9 3 -4 -5z m406 -1038
c13 -16 12 -17 -3 -4 -10 7 -18 15 -18 17 0 8 8 3 21 -13z"/>
<path d="M4720 7519 c0 -5 5 -7 10 -4 6 3 10 8 10 11 0 2 -4 4 -10 4 -5 0 -10
-5 -10 -11z"/>
</g>
</svg>
